<svg xmlns="http://www.w3.org/2000/svg" viewBox="0 0 179.44 146.31"><defs><style>.cls-1{fill:#204390;}.cls-2{fill:#fff;}.cls-3{fill:#bdc632;}.cls-4{fill:#4fc5d3;}</style></defs><g id="Layer_2" data-name="Layer 2"><g id="Layer_1-2" data-name="Layer 1"><circle class="cls-1" cx="89.72" cy="81.48" r="64.83"/><path class="cls-2" d="M58.43,106.64a4.4,4.4,0,0,1-1.38,3,5,5,0,0,1-3.3,1,5.49,5.49,0,0,1-4.12-1.49,6.85,6.85,0,0,1-.09-8.31,4.7,4.7,0,0,1,3.65-1.5,4.55,4.55,0,0,1,1.93.37,3,3,0,0,1,1.27,1.12V99.6h1.94v3.92H56.27a3.76,3.76,0,0,0-.87-2,2.33,2.33,0,0,0-1.73-.65A2.58,2.58,0,0,0,51.48,102a4.9,4.9,0,0,0-.83,3,4.81,4.81,0,0,0,.81,3A2.61,2.61,0,0,0,53.67,109a2.26,2.26,0,0,0,1.63-.58,3.2,3.2,0,0,0,.84-1.77Z"/><path class="cls-2" d="M61.56,105a5.67,5.67,0,0,1,1.51-4.15A6.44,6.44,0,1,1,61.56,105Zm2.49,0a4.65,4.65,0,0,0,.84,3,3.08,3.08,0,0,0,4.65,0,5.77,5.77,0,0,0,0-5.93,3.12,3.12,0,0,0-4.66,0A4.66,4.66,0,0,0,64.05,104.91Z"/><path class="cls-2" d="M79.31,101.07H77.92v5.38a2.8,2.8,0,0,0,.55,1.92,2.78,2.78,0,0,0,3.45,0,2.8,2.8,0,0,0,.55-1.92v-5.38H81.06V99.52h5.12v1.55h-1.4v5.33a4.11,4.11,0,0,1-1.12,3.17,5,5,0,0,1-3.47,1,5,5,0,0,1-3.46-1,4.11,4.11,0,0,1-1.13-3.17v-5.33H74.19V99.52h5.12Z"/><path class="cls-2" d="M113.74,106.64a4.4,4.4,0,0,1-1.38,3,5,5,0,0,1-3.31,1,5.5,5.5,0,0,1-4.12-1.49,6.83,6.83,0,0,1-.08-8.31,4.68,4.68,0,0,1,3.65-1.5,4.47,4.47,0,0,1,1.92.37,3,3,0,0,1,1.28,1.12V99.6h1.94v3.92h-2.06a3.69,3.69,0,0,0-.88-2,2.31,2.31,0,0,0-1.73-.65,2.58,2.58,0,0,0-2.19,1.12,4.9,4.9,0,0,0-.82,3,4.81,4.81,0,0,0,.81,3A2.6,2.6,0,0,0,109,109a2.28,2.28,0,0,0,1.64-.58,3.34,3.34,0,0,0,.84-1.77Z"/><path class="cls-2" d="M117.65,108.75v-7.69h-1.4V99.52h5.12v1.54H120v7.69h1.41v1.62h-5.12v-1.62Z"/><path class="cls-2" d="M125.08,108.75v-7.69h-1.4V99.52h5.26v1.54h-1.55v7.69h3.43v-2.24h1.91v3.86h-9v-1.62Z"/><path class="cls-2" d="M90,108.75v-7.69H88.59V99.52h4.6l4.17,8.26v-6.72H96V99.52h4.68v1.54H99.41v9.31H96.47L92,101.58v7.17h1.36v1.62H88.59v-1.62Z"/><path class="cls-2" d="M77,52.34h-.87V55.7a1.78,1.78,0,0,0,.34,1.21,1.76,1.76,0,0,0,2.16,0,1.78,1.78,0,0,0,.35-1.21V52.34H78v-1h3.21v1h-.88v3.33a2.59,2.59,0,0,1-.7,2,4,4,0,0,1-4.34,0,2.59,2.59,0,0,1-.7-2V52.34h-.89v-1H77Z"/><path class="cls-2" d="M83.63,57.16V52.34H82.8v-1h3.12l1.38,5.13,1.45-5.13h3.12v1H91v4.82h.87v1H88.93v-1h.77V52.34L88,58.16H86.51l-1.7-5.82v4.82h.72v1H82.8v-1Z"/><path class="cls-2" d="M94.26,57.15V52.33h-.82v-1h3.09v1H95.7v2.15l2.09-2.15H97.2v-1h3v1h-.64l-2.2,2.2,2.26,2.62h.67v1H97.13v-1h.75L95.7,54.68v2.47h.83v1H93.44v-1Z"/><path class="cls-2" d="M107.39,55.83a2.73,2.73,0,0,1-.87,1.86,3.1,3.1,0,0,1-2.07.61,3.46,3.46,0,0,1-2.58-.93,3.68,3.68,0,0,1-.9-2.66,3.63,3.63,0,0,1,.85-2.54,2.93,2.93,0,0,1,2.29-.94,2.73,2.73,0,0,1,1.2.23,1.88,1.88,0,0,1,.8.7v-.75h1.21v2.46H106a2.31,2.31,0,0,0-.54-1.26,1.46,1.46,0,0,0-1.09-.4,1.62,1.62,0,0,0-1.37.7,3.66,3.66,0,0,0,0,3.71,1.63,1.63,0,0,0,1.38.67,1.45,1.45,0,0,0,1-.36,2,2,0,0,0,.52-1.1Z"/><path class="cls-3" d="M143.73,61.48c0-.13-.1-.27-.16-.4A58,58,0,0,0,38.68,54.19a6,6,0,0,1,1.5.11,56.61,56.61,0,0,1,102,7"/><path class="cls-3" d="M143.81,98.2A56.63,56.63,0,0,1,34.89,97.05l-1.78-1.42A58,58,0,0,0,145.3,98Z"/><path class="cls-4" d="M73.84,70.93c.47-.05.71,0,.74.28a.7.7,0,0,1-.1.32,1,1,0,0,1-.2.27c-.26.2-2.23,2.3-2.69,2.54l-.59.31a5.4,5.4,0,0,0-.56.31l-.33.2-.32.22a1.12,1.12,0,0,0-.43.47c-.1.29-.34,1.06-.71,2.31q-.12.36-.27.87l-.13.46-.13.49c-.25.81-.44,1.47-.59,2-1,3.43-1.62,5.28-1.75,5.57A13.25,13.25,0,0,1,65,88.78l-.39.6-.42.59a20.07,20.07,0,0,0-1.54,2.48.52.52,0,0,0,0,.21.73.73,0,0,0,.07.24,2,2,0,0,1,.3.82c.09.81-.46,1.5-1.64,2.06a2.1,2.1,0,0,1-.75.23,2.5,2.5,0,0,1-.72,0l-.64-.18L59,95.72l-.29-.09a9.46,9.46,0,0,1-3.3-1.74A8.4,8.4,0,0,1,53,90.56a22.94,22.94,0,0,1-1-3.94c-.18-1.08-.46-2.51-.82-4.26l-.44-2.12-.42-2.12c0-.23-.07-.5-.11-.81L50,75.13l-.14.2a.53.53,0,0,0-.09.19l-.1.32-.06.32-.53,2.08-.53,2.08-.9,3.47-.91,3.45c-.19.73-.45,1.82-.76,3.28a11.85,11.85,0,0,1-.6,1.88l-.19.39L45,93.2a9.19,9.19,0,0,0-.43,1.07,2,2,0,0,1-.94.86,3.63,3.63,0,0,1-1.39.52,8.25,8.25,0,0,1-4.49-.46,4.8,4.8,0,0,1-2.22-3.07,49.09,49.09,0,0,1-1.8-9c-.11-1-.2-2-.27-3,0-.78-.07-1.64-.1-2.58,0-.37,0-.77,0-1.2l0-.59,0-.55c0-1.85-.11-3.15-.17-3.91a20.56,20.56,0,0,1,.21-4.7c.08-.55.21-1.34.39-2.35L33.93,63l.19-1.19,0-.19,0-.22c0-.2.06-.38.1-.55a5.1,5.1,0,0,1,.49-1.22A3.48,3.48,0,0,1,37.55,58l1-.12a3.29,3.29,0,0,1,.92,0A2.29,2.29,0,0,1,41,59.26a3.88,3.88,0,0,1,.27,1.18,32.82,32.82,0,0,1,0,5l0,.55,0,.58c0,.44-.06.83-.08,1.19,0,1-.08,1.81-.1,2.61q-.09,3.14.1,5.87-.27,9,0,11.64c.06.56.17,1.23.31,2l.2,1,.21,1s0,.09.11.15l.09.07.08.05.07-.15.08-.17.43-1.25c.18-.5.32-.93.42-1.28l.41-1.43.42-1.44c.32-1.11.57-2.07.76-2.88q1.49-6.67,3.14-14.66l0-.31,0-.29a5,5,0,0,1,.07-.6,1.53,1.53,0,0,1,.95-1,6,6,0,0,1,1.76-.48,4.57,4.57,0,0,1,1.91.18,3.6,3.6,0,0,1,2.31,1.8,33.28,33.28,0,0,1,1.73,5.23c.26,1,.52,2,.77,3s.38,1.61.45,2l1,4.88,1,4.88v0l.14.63V89a1.26,1.26,0,0,0,.46.83.49.49,0,0,0,.32.07,1.46,1.46,0,0,0,.76-.43Q64.24,85,66.46,76a.43.43,0,0,0,0-.16.89.89,0,0,0-.07-.28.65.65,0,0,0-.31-.31l-.27-.1a6.25,6.25,0,0,1-3.43-2.34,3.41,3.41,0,0,1-.48-1.46A6.5,6.5,0,0,1,62.15,69c1-3.57,2.72-5.71,5.31-6.44a10.24,10.24,0,0,1,1.37-.27,3,3,0,0,1,1.16.06,1.56,1.56,0,0,1,1,1.4v.06c.12,1-.28,3.88-1.19,8.55v0a.45.45,0,0,0,.21.29,1.11,1.11,0,0,0,.41.2c.41,0,3.17-1.85,3.72-1.91ZM67,66.72v0c0-.09-.08-.12-.21-.11h-.09l-.24.08-.18.1a2.79,2.79,0,0,0-.85,1.17,2,2,0,0,0-.06.72c0,.13,0,.26.07.39q.18.63.57.6l.11,0a1.23,1.23,0,0,0,.51-.17l.15-.16a.24.24,0,0,0,.07-.13l.08-1.22Z"/><path class="cls-4" d="M78.08,95.25c-2.54,0-5.39-1.45-5.39-6.26V70.53c0-4.81,2.85-6.26,5.39-6.26,2.78,0,5.4,1.37,5.4,6.26V89C83.48,93.88,80.63,95.25,78.08,95.25Zm2.19-25c0-2.19-1.09-3-2.19-3s-2.19.79-2.19,3v19c0,2.2,1.1,3,2.19,3s2.19-.78,2.19-3Z"/><path class="cls-4" d="M100,94.74V71.66l.28-2.15-.63,2.08L96,94.74H93.41L90,71.59l-.62-2.08.27,2.15V94.74H86.41v-30H91.5l3.13,20.61.19,2.7.2-2.74,3.13-20.57h5.08v30Z"/><path class="cls-4" d="M106.36,94.74v-30h8.76V68h-5.55V78h5.28v3.21h-5.28V91.53h5.55v3.21Z"/><path class="cls-4" d="M125.64,94.74l-4.81-20-.62-2.07.27,2.15V94.74h-3.21v-30H121l5,21,.79,2.2-.47-2.2v-21h3.2v30Z"/><path class="cls-4" d="M132.6,73.27h-2.19l3.45-8.53h3.71Z"/><path class="cls-4" d="M142.73,95.25c-3.63,0-5.39-2-5.39-6.26V84.73h3.2v4.53c0,2.2,1.1,3,2.19,3s2.19-.78,2.19-3V86c0-3.72-7.58-6.26-7.58-11.93V70.53c0-4.81,2.85-6.26,5.39-6.26s5.4,1.37,5.4,6.26v4.69h-3.21v-5c0-2.19-1.09-3-2.19-3s-2.19.79-2.19,3v3.28c0,4.93,7.59,6.26,7.59,11.85V89C148.13,93.33,146.37,95.25,142.73,95.25Z"/><path class="cls-4" d="M144.68,132.83q16.44-2,32.63-4.81a1.35,1.35,0,0,0,.82-2.16L172,118.1a1.35,1.35,0,0,1-.11-1.5l5.71-9.92a1.33,1.33,0,0,0-1.39-2q-15.8,2.8-31.85,4.79a1.34,1.34,0,0,0-1.18,1.32v20.68A1.35,1.35,0,0,0,144.68,132.83Z"/><path class="cls-1" d="M144.52,133.86a2.38,2.38,0,0,1-2.37-2.37V110.81a2.35,2.35,0,0,1,2.07-2.33c10.58-1.31,21.28-2.92,31.8-4.78a2.35,2.35,0,0,1,2.34,1,2.32,2.32,0,0,1,.11,2.53l-5.7,9.92a.32.32,0,0,0,0,.36l6.13,7.75a2.36,2.36,0,0,1-1.44,3.8c-10.81,1.89-21.81,3.51-32.68,4.82Zm31.92-28.16h-.06c-10.56,1.87-21.3,3.49-31.91,4.8a.31.31,0,0,0-.28.31v20.68a.34.34,0,0,0,.11.25.33.33,0,0,0,.26.08h0c10.83-1.31,21.79-2.93,32.57-4.81a.32.32,0,0,0,.25-.2.33.33,0,0,0,0-.32l-6.13-7.76a2.34,2.34,0,0,1-.2-2.64l5.71-9.91a.31.31,0,0,0-.27-.48Z"/><path class="cls-4" d="M34.76,132.83q-16.45-2-32.63-4.81a1.35,1.35,0,0,1-.82-2.16l6.13-7.76a1.33,1.33,0,0,0,.11-1.5l-5.71-9.92a1.34,1.34,0,0,1,1.4-2q15.79,2.8,31.85,4.79a1.33,1.33,0,0,1,1.17,1.32v20.68A1.34,1.34,0,0,1,34.76,132.83Z"/><path class="cls-1" d="M34.92,133.86l-.28,0h0C23.77,132.53,12.77,130.91,2,129a2.37,2.37,0,0,1-1.45-3.8l6.13-7.75a.3.3,0,0,0,0-.36L1,107.19a2.35,2.35,0,0,1,2.46-3.49c10.52,1.86,21.22,3.47,31.8,4.78a2.35,2.35,0,0,1,2.06,2.33v20.68a2.36,2.36,0,0,1-2.36,2.37ZM3,105.7a.31.31,0,0,0-.26.48l5.71,9.91a2.36,2.36,0,0,1-.2,2.64l-6.13,7.76a.33.33,0,0,0,0,.32.32.32,0,0,0,.25.2c10.78,1.88,21.74,3.5,32.57,4.81h0a.4.4,0,0,0,.26-.08.34.34,0,0,0,.11-.25V110.81a.31.31,0,0,0-.28-.31c-10.62-1.31-21.35-2.92-31.91-4.8Z"/><path class="cls-1" d="M164.55,132.33V116.39a1.34,1.34,0,0,0-1-1.29l-18.76-5a1.34,1.34,0,0,0-1.69,1.29v15.94a1.34,1.34,0,0,0,1,1.29l18.76,5A1.34,1.34,0,0,0,164.55,132.33Z"/><path class="cls-1" d="M163.21,135.07a2.53,2.53,0,0,1-.71-.1l-18.76-5a2.74,2.74,0,0,1-2-2.65V111.38a2.73,2.73,0,0,1,3.44-2.64l18.76,5a2.74,2.74,0,0,1,2,2.64v15.94a2.74,2.74,0,0,1-2.73,2.74Zm-18.71-7.8,18.65,5V116.44l-18.65-5Z"/><path class="cls-1" d="M14.75,132.33V116.39a1.34,1.34,0,0,1,1-1.29l18.76-5a1.34,1.34,0,0,1,1.69,1.29v15.94a1.34,1.34,0,0,1-1,1.29l-18.76,5A1.34,1.34,0,0,1,14.75,132.33Z"/><path class="cls-1" d="M16.09,135.07a2.74,2.74,0,0,1-2.73-2.74V116.39a2.74,2.74,0,0,1,2-2.64l18.76-5a2.73,2.73,0,0,1,3.44,2.64v15.93a2.74,2.74,0,0,1-2,2.65L16.8,135A2.53,2.53,0,0,1,16.09,135.07Zm.06-18.63v15.84l18.65-5V111.45Z"/><path class="cls-4" d="M14.75,116.81v22.78a1.34,1.34,0,0,0,1.19,1.34,636.17,636.17,0,0,0,73.71,4.27,636.17,636.17,0,0,0,73.71-4.27,1.35,1.35,0,0,0,1.19-1.34V116.81a1.33,1.33,0,0,0-1.5-1.32,621.85,621.85,0,0,1-73.4,4.34,621.85,621.85,0,0,1-73.4-4.34A1.33,1.33,0,0,0,14.75,116.81Z"/><path class="cls-1" d="M89.65,146.21a639.74,639.74,0,0,1-73.83-4.27,2.37,2.37,0,0,1-2.09-2.35V116.81a2.37,2.37,0,0,1,.79-1.76,2.4,2.4,0,0,1,1.85-.57,623.14,623.14,0,0,0,73.28,4.33,623.27,623.27,0,0,0,73.28-4.33,2.36,2.36,0,0,1,1.84.57,2.34,2.34,0,0,1,.79,1.76v22.78a2.36,2.36,0,0,1-2.09,2.35A639.44,639.44,0,0,1,89.65,146.21ZM16.09,116.5a.26.26,0,0,0-.21.08.29.29,0,0,0-.11.23v22.78a.33.33,0,0,0,.29.33,640.07,640.07,0,0,0,73.59,4.26,640.07,640.07,0,0,0,73.59-4.26.33.33,0,0,0,.29-.33V116.81a.29.29,0,0,0-.11-.23.31.31,0,0,0-.25-.08,625.06,625.06,0,0,1-73.52,4.34,625.06,625.06,0,0,1-73.52-4.34Z"/><path class="cls-1" d="M20.94,125.65a2,2,0,0,0,0,.74,1.81,1.81,0,0,0,.31.64,1.77,1.77,0,0,0,1.25.7,2,2,0,0,0,.91-.1,2.45,2.45,0,0,0,.76-.46l.91.87a3.54,3.54,0,0,1-.5.41,4.65,4.65,0,0,1-.63.33,3.5,3.5,0,0,1-.74.2,3.34,3.34,0,0,1-2.08-.36,3,3,0,0,1-1.48-1.86,3.3,3.3,0,0,1-.11-1.26,3.22,3.22,0,0,1,1.15-2.14,3.19,3.19,0,0,1,3.71-.21,3.06,3.06,0,0,1,1,1l-1.1.63a2.38,2.38,0,0,0-.58-.56,1.7,1.7,0,0,0-.81-.28,1.82,1.82,0,0,0-.74.07,1.83,1.83,0,0,0-1,.93A1.77,1.77,0,0,0,20.94,125.65Z"/><path class="cls-1" d="M26.58,123.14l4.23.41-.11,1.15-2.94-.29-.13,1.3,2.55.25-.1,1-2.55-.25-.14,1.5,3.06.3-.11,1.15L26,129.27Z"/><path class="cls-1" d="M32,123.66l1.29.11-.44,4.93,2.85.25-.11,1.21-4.14-.37Z"/><path class="cls-1" d="M37,124.1l4.25.34-.1,1.15-2.94-.24-.11,1.31,2.56.2-.09,1L38,127.68l-.12,1.51,3.06.24-.09,1.16-4.36-.35Z"/><path class="cls-1" d="M45,124.71a2.35,2.35,0,0,1,.78.18,2,2,0,0,1,.61.37,1.49,1.49,0,0,1,.37.55,1.8,1.8,0,0,1,.1.71,1.4,1.4,0,0,1-.24.71,1.65,1.65,0,0,1-.47.45,1.75,1.75,0,0,1,.6.64,1.54,1.54,0,0,1,.17.89,1.82,1.82,0,0,1-.21.75,1.49,1.49,0,0,1-.47.53,1.85,1.85,0,0,1-.68.31,2.56,2.56,0,0,1-.84.07l-2.75-.2.44-6.14Zm.62,4.35a.77.77,0,0,0-.21-.63,1.08,1.08,0,0,0-.69-.25l-1.26-.09-.12,1.6,1.32.1a1,1,0,0,0,.66-.17A.7.7,0,0,0,45.66,129.06Zm0-2.52a.68.68,0,0,0-.19-.54,1,1,0,0,0-.58-.23l-1.17-.08-.1,1.45,1.22.08a.77.77,0,0,0,.58-.15A.76.76,0,0,0,45.61,126.54Z"/><path class="cls-1" d="M52.86,127.16a1.77,1.77,0,0,1-1.42,1.68l1.45,2.55-1.46-.09L50.14,129l-.73,0-.14,2.27-1.3-.08.38-6.15,2.37.15a3.26,3.26,0,0,1,.93.19,2,2,0,0,1,.68.44,1.66,1.66,0,0,1,.42.63A1.94,1.94,0,0,1,52.86,127.16Zm-3.28-1-.11,1.7,1,.07a1.09,1.09,0,0,0,.74-.2.82.82,0,0,0,.29-.6.77.77,0,0,0-.23-.64,1.11,1.11,0,0,0-.74-.27Z"/><path class="cls-1" d="M57.72,130.27l-2.21-.11-.62,1.34-1.4-.07,2.78-6,1.18.06,2.15,6.28-1.42-.08ZM55.9,129.2l1.55.08-.66-2.17Z"/><path class="cls-1" d="M59.52,125.57l5,.22L64.49,127l-1.86-.08-.22,4.94-1.3-.06.21-4.94-1.86-.08Z"/><path class="cls-1" d="M66.39,132l-1.3-.05.23-6.15,1.3.05Z"/><path class="cls-1" d="M73.08,132.24l-1.12,0-2.77-4-.11,3.9-1.3,0,.18-6.16,1.12,0,2.76,4L72,126l1.31,0Z"/><path class="cls-1" d="M77.16,128.82l2.93.06,0,2.46a3.12,3.12,0,0,1-1.14.81,3.51,3.51,0,0,1-1.51.28,3.38,3.38,0,0,1-1.29-.27,3.12,3.12,0,0,1-1.85-3,3.06,3.06,0,0,1,.26-1.24,3,3,0,0,1,.67-1,3.2,3.2,0,0,1,1-.66,3.35,3.35,0,0,1,2.67.12,3,3,0,0,1,1,.9l-1.06.66a1.89,1.89,0,0,0-.63-.48,1.92,1.92,0,0,0-.8-.19,1.76,1.76,0,0,0-1.33.55,1.84,1.84,0,0,0-.4.62,1.86,1.86,0,0,0-.15.75,2,2,0,0,0,.12.76,1.83,1.83,0,0,0,.38.63,1.65,1.65,0,0,0,.6.43,1.79,1.79,0,0,0,.78.17,2.37,2.37,0,0,0,.76-.09,1.58,1.58,0,0,0,.59-.31l0-.88-1.66,0Z"/><path class="cls-1" d="M84,126.26l3.52,0v1.08l-2.39,0-.08,1,.3-.08.32,0a2.35,2.35,0,0,1,.89.16,2.43,2.43,0,0,1,.72.45,2,2,0,0,1,.47.67,1.85,1.85,0,0,1,.17.85,2.19,2.19,0,0,1-.17.85,1.87,1.87,0,0,1-.48.69,2.28,2.28,0,0,1-.74.47,2.48,2.48,0,0,1-1,.16,2.43,2.43,0,0,1-1.33-.36,2.26,2.26,0,0,1-.86-.93l1.2-.46a.88.88,0,0,0,.4.45,1.09,1.09,0,0,0,.56.15.94.94,0,0,0,.37-.07,1.08,1.08,0,0,0,.34-.21,1.14,1.14,0,0,0,.23-.33,1,1,0,0,0,.09-.44.91.91,0,0,0-.08-.44,1.2,1.2,0,0,0-.23-.34,1.15,1.15,0,0,0-.33-.21,1,1,0,0,0-.39-.07,1.11,1.11,0,0,0-.46.07,1,1,0,0,0-.34.22h-1Z"/><path class="cls-1" d="M88.86,129.38a5.35,5.35,0,0,1,.14-1.24,3,3,0,0,1,.44-1,2.23,2.23,0,0,1,.75-.68,2.38,2.38,0,0,1,1.1-.26,2.35,2.35,0,0,1,1.1.25,2.07,2.07,0,0,1,.76.68,2.82,2.82,0,0,1,.44,1,5,5,0,0,1,.15,1.24,5.41,5.41,0,0,1-.14,1.24,3.15,3.15,0,0,1-.44,1,2.26,2.26,0,0,1-.76.68,2.43,2.43,0,0,1-1.09.25,2.24,2.24,0,0,1-1.1-.25,2.07,2.07,0,0,1-.76-.68,2.85,2.85,0,0,1-.44-1A5,5,0,0,1,88.86,129.38Zm1.33,0a4.47,4.47,0,0,0,.06.75,2.44,2.44,0,0,0,.18.61,1.11,1.11,0,0,0,.34.42.9.9,0,0,0,.53.16.93.93,0,0,0,.54-.16,1,1,0,0,0,.33-.42,1.88,1.88,0,0,0,.18-.62,4.35,4.35,0,0,0,.06-.74,5.84,5.84,0,0,0-.06-.75,2.66,2.66,0,0,0-.18-.62,1.11,1.11,0,0,0-.34-.42.93.93,0,0,0-.54-.15.92.92,0,0,0-.53.15,1.23,1.23,0,0,0-.34.43,2.07,2.07,0,0,0-.17.62A4.35,4.35,0,0,0,90.19,129.37Z"/><path class="cls-1" d="M100.14,132.36l-1.3,0,0-2.64-2.24-3.48,1.55,0,1.32,2.19,1.25-2.23,1.55,0-2.13,3.54Z"/><path class="cls-1" d="M103,126.15l4.25-.1,0,1.16-3,.07,0,1.3,2.56-.06,0,1-2.56.06,0,1.51,3.07-.07,0,1.15-4.37.11Z"/><path class="cls-1" d="M112.37,130.67l-2.22.08-.5,1.39-1.4.05,2.26-6.24,1.18,0,2.68,6.07L113,132Zm-1.91-.91,1.55-.06-.84-2.1Z"/><path class="cls-1" d="M119.8,127.52a1.9,1.9,0,0,1-.3,1.12,1.84,1.84,0,0,1-.93.7l1.7,2.38-1.46.07-1.53-2.21-.73,0,.1,2.27-1.3.06-.27-6.16,2.37-.1a3.09,3.09,0,0,1,.94.1,2,2,0,0,1,.73.36,1.68,1.68,0,0,1,.48.58A2.05,2.05,0,0,1,119.8,127.52Zm-3.37-.69.07,1.71,1,0a1,1,0,0,0,.72-.28.88.88,0,0,0-.07-1.24,1.15,1.15,0,0,0-.76-.19Z"/><path class="cls-1" d="M124.14,126.91a1.79,1.79,0,0,0-.56-.38,1.5,1.5,0,0,0-.67-.11,1.43,1.43,0,0,0-.39.07.77.77,0,0,0-.25.16.56.56,0,0,0-.13.22.85.85,0,0,0,0,.23.57.57,0,0,0,.18.39,1.13,1.13,0,0,0,.54.23l.74.17a2.74,2.74,0,0,1,1.32.66,1.6,1.6,0,0,1,.51,1.14,1.69,1.69,0,0,1-.11.7,1.81,1.81,0,0,1-.41.62,2.08,2.08,0,0,1-.7.46,3.15,3.15,0,0,1-1,.2,3.26,3.26,0,0,1-.62,0,2.69,2.69,0,0,1-.62-.16,2.55,2.55,0,0,1-.57-.29,2.86,2.86,0,0,1-.5-.42l.77-.84a2,2,0,0,0,.72.49,1.84,1.84,0,0,0,.74.13,1.91,1.91,0,0,0,.45-.08.86.86,0,0,0,.31-.19A.63.63,0,0,0,124,130a.66.66,0,0,0,0-.28.63.63,0,0,0-.23-.47,1.74,1.74,0,0,0-.69-.28l-.66-.17a3,3,0,0,1-1.23-.6,1.53,1.53,0,0,1-.46-1.07,1.61,1.61,0,0,1,.49-1.23,2,2,0,0,1,.64-.42,2.37,2.37,0,0,1,.88-.2,2.81,2.81,0,0,1,1.08.16,2.74,2.74,0,0,1,1,.62Z"/><path class="cls-1" d="M128.37,128.21a3.32,3.32,0,0,1,.17-1.26,3,3,0,0,1,.6-1.06,3.16,3.16,0,0,1,1-.74,3.12,3.12,0,0,1,1.23-.33,3.19,3.19,0,0,1,2.3.78,3.25,3.25,0,0,1,.74,1,3.2,3.2,0,0,1,.16,2.48,3.2,3.2,0,0,1-.6,1,3.33,3.33,0,0,1-1,.74,3.16,3.16,0,0,1-1.22.33,3.08,3.08,0,0,1-1.26-.17,3.42,3.42,0,0,1-1-.6,3.3,3.3,0,0,1-.73-1A3.21,3.21,0,0,1,128.37,128.21Zm1.35-.09a2.18,2.18,0,0,0,.18.72,1.92,1.92,0,0,0,.42.58,1.68,1.68,0,0,0,.6.37,1.78,1.78,0,0,0,.73.11,1.93,1.93,0,0,0,.72-.2,1.8,1.8,0,0,0,.54-.45,1.91,1.91,0,0,0,.34-.63,2,2,0,0,0,.08-.74,1.83,1.83,0,0,0-.18-.73,1.73,1.73,0,0,0-.42-.58,1.93,1.93,0,0,0-.59-.38,1.82,1.82,0,0,0-.74-.11,1.68,1.68,0,0,0-.71.21,1.78,1.78,0,0,0-.88,1.08A1.89,1.89,0,0,0,129.72,128.12Z"/><path class="cls-1" d="M135.53,124.63l4.13-.31.09,1.16-2.83.21.11,1.38,2.55-.2.08,1.11-2.55.19.19,2.51-1.3.1Z"/><path class="cls-1" d="M142.26,124.11l5-.44.11,1.21-1.85.17L146,130l-1.31.12-.43-4.93-1.85.16Z"/><path class="cls-1" d="M153.69,129.25l-1.3.12-.25-2.56-2.47.24.25,2.56-1.29.13-.6-6.14,1.3-.12.23,2.38,2.47-.24-.23-2.38,1.3-.13Z"/><path class="cls-1" d="M154.41,123l4.24-.45.12,1.15-2.94.31.13,1.3,2.55-.27.11,1-2.55.28.16,1.5,3.06-.33.12,1.15-4.35.46Z"/><path class="cls-1" d="M26.81,133.92l2.91.29-.24,2.45a3.16,3.16,0,0,1-1.2.72,3.45,3.45,0,0,1-1.52.15,3.29,3.29,0,0,1-1.27-.37,3,3,0,0,1-.94-.78,3.13,3.13,0,0,1-.56-1.07,3.07,3.07,0,0,1-.11-1.25,3.31,3.31,0,0,1,.35-1.22,3.18,3.18,0,0,1,.76-.94,3.12,3.12,0,0,1,1.06-.58,3.06,3.06,0,0,1,1.29-.12,3.13,3.13,0,0,1,1.37.45,3.06,3.06,0,0,1,1,1l-1.12.57a2,2,0,0,0-.58-.53,2.09,2.09,0,0,0-.79-.25,1.69,1.69,0,0,0-.75.09,1.83,1.83,0,0,0-.62.36,2,2,0,0,0-.45.58,2.2,2.2,0,0,0-.21.73,2,2,0,0,0,.06.77,1.86,1.86,0,0,0,.33.66,1.73,1.73,0,0,0,.56.48,2,2,0,0,0,.77.24,2.71,2.71,0,0,0,.76,0,1.51,1.51,0,0,0,.62-.26l.09-.87L26.71,135Z"/><path class="cls-1" d="M35.59,134a1.88,1.88,0,0,1-.44,1.08,1.91,1.91,0,0,1-1,.57l1.38,2.58-1.46-.13-1.23-2.39-.73-.06-.2,2.26-1.29-.11.55-6.14,2.36.21a3.18,3.18,0,0,1,.92.22,2.24,2.24,0,0,1,.68.45,1.66,1.66,0,0,1,.39.65A1.81,1.81,0,0,1,35.59,134Zm-3.25-1.12-.15,1.7,1,.09a1,1,0,0,0,.75-.17.81.81,0,0,0,.3-.59.76.76,0,0,0-.21-.66,1.09,1.09,0,0,0-.73-.28Z"/><path class="cls-1" d="M40.37,137.26l-2.21-.18-.65,1.33-1.41-.11,2.95-6,1.18.1,2,6.33-1.42-.11Zm-1.79-1.13,1.54.12-.6-2.18Z"/><path class="cls-1" d="M43.61,132.71l2.16.14a3.67,3.67,0,0,1,1.33.34,2.89,2.89,0,0,1,1,.72,2.67,2.67,0,0,1,.56,1,3.28,3.28,0,0,1,.14,1.22,3.31,3.31,0,0,1-.3,1.2,2.92,2.92,0,0,1-.7.93,3,3,0,0,1-1,.58,3.78,3.78,0,0,1-1.37.14l-2.15-.15Zm3.8,3.35a2.1,2.1,0,0,0-.07-.76,1.68,1.68,0,0,0-.33-.62,1.57,1.57,0,0,0-.55-.43,2.13,2.13,0,0,0-.78-.2l-.86-.06-.26,3.75.87.06a1.88,1.88,0,0,0,.8-.08,1.55,1.55,0,0,0,.61-.35,1.58,1.58,0,0,0,.4-.57A2.43,2.43,0,0,0,47.41,136.06Z"/><path class="cls-1" d="M49.91,133.13l1.3.07L51,136.94a1.35,1.35,0,0,0,.06.5,1.2,1.2,0,0,0,.24.41,1.25,1.25,0,0,0,.36.28,1.31,1.31,0,0,0,.49.12,1.38,1.38,0,0,0,.5-.06A1.33,1.33,0,0,0,53,138a1.29,1.29,0,0,0,.28-.38,1.31,1.31,0,0,0,.12-.48l.22-3.74,1.31.07-.22,3.74a2.61,2.61,0,0,1-.24,1,2.57,2.57,0,0,1-.57.77,2.37,2.37,0,0,1-.83.49,2.42,2.42,0,0,1-1,.14,2.61,2.61,0,0,1-1-.26,2.53,2.53,0,0,1-1.34-2.4Z"/><path class="cls-1" d="M59.49,138.45l-2.22-.11-.61,1.35-1.41-.07,2.77-6,1.18.06,2.17,6.27L60,139.85Zm-1.83-1.07,1.55.08-.67-2.17Z"/><path class="cls-1" d="M61.25,133.75l5,.2,0,1.22-1.86-.08-.2,4.94L62.86,140l.2-4.94L61.2,135Z"/><path class="cls-1" d="M67.05,134l4.25.14,0,1.15-3-.09,0,1.3,2.56.09,0,1-2.56-.09,0,1.51,3.08.1,0,1.16-4.37-.15Z"/><path class="cls-1" d="M78.45,139.07l-2.22,0-.57,1.37-1.41,0,2.59-6.11,1.18,0,2.35,6.21-1.42,0Zm-1.86-1,1.55,0-.73-2.14Z"/><path class="cls-1" d="M84.38,135.91a1.64,1.64,0,0,0-.53-.41,1.69,1.69,0,0,0-.66-.16,1.5,1.5,0,0,0-.4,0,.93.93,0,0,0-.26.15.66.66,0,0,0-.14.2,1,1,0,0,0,0,.23.62.62,0,0,0,.16.41,1.14,1.14,0,0,0,.53.26l.72.22a2.69,2.69,0,0,1,1.28.73,1.64,1.64,0,0,1,.44,1.17,1.74,1.74,0,0,1-.16.7,1.69,1.69,0,0,1-.45.59,2.09,2.09,0,0,1-.72.41,3,3,0,0,1-1,.15,4.39,4.39,0,0,1-.61-.07,3.35,3.35,0,0,1-.61-.2,3.08,3.08,0,0,1-.55-.33,2.51,2.51,0,0,1-.47-.45l.82-.79a2,2,0,0,0,.69.54,1.8,1.8,0,0,0,.73.17,1.26,1.26,0,0,0,.45-.06.87.87,0,0,0,.32-.16.76.76,0,0,0,.18-.23.66.66,0,0,0,.06-.27.63.63,0,0,0-.19-.49,2,2,0,0,0-.67-.33l-.65-.21a2.7,2.7,0,0,1-1.19-.67,1.54,1.54,0,0,1-.4-1.1,1.81,1.81,0,0,1,.15-.65,1.79,1.79,0,0,1,.42-.54,2.14,2.14,0,0,1,.66-.39,2.74,2.74,0,0,1,.9-.14,2.82,2.82,0,0,1,1.07.23,2.72,2.72,0,0,1,.93.68Z"/><path class="cls-1" d="M89.63,135.93a1.73,1.73,0,0,0-.53-.4,1.52,1.52,0,0,0-.66-.15,1.18,1.18,0,0,0-.4.05.74.74,0,0,0-.26.15.52.52,0,0,0-.14.2.62.62,0,0,0,0,.23.54.54,0,0,0,.16.4,1,1,0,0,0,.52.26l.73.22a2.77,2.77,0,0,1,1.29.72,1.68,1.68,0,0,1,.44,1.16,1.69,1.69,0,0,1-.15.7,1.73,1.73,0,0,1-.44.6,2.21,2.21,0,0,1-.72.42,3,3,0,0,1-1,.15,2.6,2.6,0,0,1-.61-.07,2.69,2.69,0,0,1-.61-.19,3.5,3.5,0,0,1-.56-.32,2.85,2.85,0,0,1-.47-.45l.82-.79a2.13,2.13,0,0,0,.69.53,1.8,1.8,0,0,0,.73.17,1.25,1.25,0,0,0,.45-.07,1,1,0,0,0,.32-.16.69.69,0,0,0,.18-.24.6.6,0,0,0,.06-.27.63.63,0,0,0-.2-.48,2,2,0,0,0-.67-.33l-.66-.2a2.66,2.66,0,0,1-1.19-.67,1.46,1.46,0,0,1-.4-1.09,1.49,1.49,0,0,1,.14-.65,1.65,1.65,0,0,1,.41-.55,2.14,2.14,0,0,1,.66-.39,2.72,2.72,0,0,1,.89-.14,2.76,2.76,0,0,1,1.07.21,2.66,2.66,0,0,1,.94.68Z"/><path class="cls-1" d="M93.11,140.53h-1.3l0-6.16h1.3Z"/><path class="cls-1" d="M97.56,135.88a1.63,1.63,0,0,0-.54-.39,1.45,1.45,0,0,0-.66-.15,1.07,1.07,0,0,0-.39.06.81.81,0,0,0-.26.15.49.49,0,0,0-.14.21.59.59,0,0,0,0,.23.56.56,0,0,0,.17.4,1.1,1.1,0,0,0,.52.25l.74.2a2.85,2.85,0,0,1,1.29.71,1.68,1.68,0,0,1,.46,1.16,1.73,1.73,0,0,1-.58,1.31,2.34,2.34,0,0,1-.71.42,2.8,2.8,0,0,1-1,.16,2.85,2.85,0,0,1-1.22-.24,2.77,2.77,0,0,1-.56-.31,2.88,2.88,0,0,1-.48-.44l.8-.81a2.09,2.09,0,0,0,.7.52,1.87,1.87,0,0,0,.74.16,1.25,1.25,0,0,0,.45-.07.83.83,0,0,0,.31-.17.76.76,0,0,0,.18-.23.66.66,0,0,0,0-.28.63.63,0,0,0-.2-.48,2,2,0,0,0-.68-.31l-.65-.2a2.63,2.63,0,0,1-1.2-.65,1.47,1.47,0,0,1-.42-1.09,1.64,1.64,0,0,1,.13-.65,1.8,1.8,0,0,1,.41-.55,1.93,1.93,0,0,1,.65-.4,2.71,2.71,0,0,1,.89-.16,2.81,2.81,0,0,1,1.08.21,2.69,2.69,0,0,1,.94.66Z"/><path class="cls-1" d="M98.92,134.32l5-.09,0,1.21-1.86,0,.09,4.94-1.31,0-.09-4.94-1.86,0Z"/><path class="cls-1" d="M107.83,138.91l-2.22.06-.51,1.39-1.4,0,2.3-6.23,1.19,0,2.63,6.09-1.42,0Zm-1.9-.93,1.55,0-.83-2.11Z"/><path class="cls-1" d="M116.1,140,115,140l-3-3.78.14,3.89-1.3,0-.22-6.16,1.11,0,3,3.8-.15-3.91,1.31,0Z"/><path class="cls-1" d="M118.4,136.82a2.17,2.17,0,0,0,.17.73,2,2,0,0,0,.41.59,1.86,1.86,0,0,0,.6.38,1.63,1.63,0,0,0,.74.11,1.91,1.91,0,0,0,.89-.24,2.45,2.45,0,0,0,.67-.57l1,.72a2.81,2.81,0,0,1-.44.48,3.55,3.55,0,0,1-.57.43,3.17,3.17,0,0,1-.7.31,3.61,3.61,0,0,1-.82.15,3.18,3.18,0,0,1-2.33-.82,3.15,3.15,0,0,1-1-2.21,3.27,3.27,0,0,1,.18-1.25,3.13,3.13,0,0,1,.62-1,3.3,3.3,0,0,1,1-.73,3.19,3.19,0,0,1,1.23-.31,3.15,3.15,0,0,1,1.45.26,3.27,3.27,0,0,1,1.11.84l-1,.78A2.54,2.54,0,0,0,121,135a1.79,1.79,0,0,0-.85-.15,1.53,1.53,0,0,0-.71.19,1.7,1.7,0,0,0-.55.44,1.93,1.93,0,0,0-.35.63A2.28,2.28,0,0,0,118.4,136.82Z"/><path class="cls-1" d="M123.6,133.48l4.25-.24.07,1.15-3,.17.08,1.3,2.56-.14.06,1-2.56.14.08,1.51,3.07-.18.07,1.16-4.37.25Z"/><path class="cls-1" d="M131.34,133l4.13-.28.08,1.15-2.83.2.1,1.38,2.55-.18.07,1.11-2.55.17.18,2.51-1.31.09Z"/><path class="cls-1" d="M136.31,132.66l1.3-.1.29,3.74a1.27,1.27,0,0,0,.13.48,1.17,1.17,0,0,0,.28.37,1.27,1.27,0,0,0,.41.23,1.26,1.26,0,0,0,1-.08,1.06,1.06,0,0,0,.37-.29,1.25,1.25,0,0,0,.22-.41,1.35,1.35,0,0,0,.06-.49l-.29-3.74,1.3-.1.29,3.73a2.5,2.5,0,0,1-.11,1,2.62,2.62,0,0,1-.45.84,2.3,2.3,0,0,1-.76.61,2.75,2.75,0,0,1-1,.28,2.58,2.58,0,0,1-1.05-.12,2.23,2.23,0,0,1-.83-.49,2.33,2.33,0,0,1-.57-.75,2.85,2.85,0,0,1-.26-1Z"/><path class="cls-1" d="M148.43,137.85l-1.12.09-3.21-3.63.34,3.89-1.29.11-.55-6.14,1.11-.09,3.22,3.63-.34-3.89,1.3-.11Z"/><path class="cls-1" d="M149.2,131.59l2.15-.22a3.59,3.59,0,0,1,1.37.11,2.84,2.84,0,0,1,1.8,1.46,3.28,3.28,0,0,1,.33,1.19,3.35,3.35,0,0,1-.1,1.23,2.59,2.59,0,0,1-.53,1,3.06,3.06,0,0,1-.94.75,3.77,3.77,0,0,1-1.32.36l-2.15.22Zm4.31,2.67a2.19,2.19,0,0,0-.2-.74,1.79,1.79,0,0,0-.42-.55,1.57,1.57,0,0,0-.62-.34,2.09,2.09,0,0,0-.8-.06l-.86.08.37,3.75.86-.09a2.23,2.23,0,0,0,.78-.21,1.71,1.71,0,0,0,.54-.45,1.67,1.67,0,0,0,.3-.63A2.11,2.11,0,0,0,153.51,134.26Z"/><circle class="cls-4" cx="88.78" cy="24.08" r="23.06"/><path class="cls-1" d="M88.78,48.17a24.09,24.09,0,1,1,24.08-24.09A24.11,24.11,0,0,1,88.78,48.17ZM88.78,2a22,22,0,1,0,22,22A22.07,22.07,0,0,0,88.78,2Z"/><path class="cls-3" d="M73.47,20.51a4.24,4.24,0,0,1,1.11,4.14,4.24,4.24,0,0,1-4.14-1.11,4.29,4.29,0,0,1-1.11-4.14,4.29,4.29,0,0,1,4.14,1.11Z"/><path class="cls-3" d="M77.49,13.9a4.31,4.31,0,0,1-1.11,4.15,4.29,4.29,0,0,1-1.93-7.18,4.31,4.31,0,0,1,3,3Z"/><path class="cls-3" d="M73.41,28.57a4.29,4.29,0,0,1,3,3,4.29,4.29,0,0,1-7.18-1.92A4.28,4.28,0,0,1,73.41,28.57Z"/><path class="cls-3" d="M78.24,35.61A4.28,4.28,0,0,1,82,37.76a4.29,4.29,0,0,1-7.43,0A4.3,4.3,0,0,1,78.24,35.61Z"/><path class="cls-3" d="M108.23,19.4A4.29,4.29,0,0,1,103,24.65a4.29,4.29,0,0,1,5.26-5.25Z"/><path class="cls-3" d="M103.1,10.87a4.28,4.28,0,0,1-1.92,7.18,4.29,4.29,0,0,1,1.92-7.18Z"/><path class="cls-3" d="M108.29,29.68a4.29,4.29,0,0,1-7.18,1.92,4.29,4.29,0,0,1,7.18-1.92Z"/><path class="cls-3" d="M103,37.76a4.3,4.3,0,0,1-7.44,0,4.29,4.29,0,0,1,7.44,0Z"/><path class="cls-1" d="M87.12,37.81A13.27,13.27,0,0,1,77,18.52a5.09,5.09,0,0,0-2.37-8.42.81.81,0,0,0-.77.21,5.08,5.08,0,0,0,1.38,8.17,15,15,0,0,0-.75,2A4.29,4.29,0,0,0,74,20a5.11,5.11,0,0,0-4.92-1.32.79.79,0,0,0-.56.57,5.09,5.09,0,0,0,4.92,6.4,3.87,3.87,0,0,0,.48,0,15.6,15.6,0,0,0,.36,2.48,4.16,4.16,0,0,0-.7-.25,5.1,5.1,0,0,0-4.91,1.32.81.81,0,0,0-.21.77,5.1,5.1,0,0,0,3.6,3.59,4.86,4.86,0,0,0,1.31.17,5.17,5.17,0,0,0,2.92-.91A14.29,14.29,0,0,0,78,34.82a5.13,5.13,0,0,0-4.14,2.54.81.81,0,0,0,0,.8,5.09,5.09,0,0,0,8.8,0,14.78,14.78,0,0,0,4.3,1.22H87a.79.79,0,0,0,.09-1.58ZM72.51,31.94a3.5,3.5,0,0,1-2.31-2,3.48,3.48,0,0,1,3-.59,3.52,3.52,0,0,1,2.31,2A3.48,3.48,0,0,1,72.51,31.94Zm1.6-17.13a3.51,3.51,0,0,1,.59-3,3.48,3.48,0,0,1,1.43,5.32A3.48,3.48,0,0,1,74.11,14.81ZM71,23a3.51,3.51,0,0,1-1-2.9,3.49,3.49,0,0,1,3.9,3.9A3.52,3.52,0,0,1,71,23Zm7.24,16.13a3.53,3.53,0,0,1-2.76-1.35,3.49,3.49,0,0,1,5.51,0A3.49,3.49,0,0,1,78.24,39.11Z"/><path class="cls-1" d="M103.94,27.8a4.61,4.61,0,0,0-.71.25,15.61,15.61,0,0,0,.37-2.48,3.87,3.87,0,0,0,.48,0A5.09,5.09,0,0,0,109,19.2a.8.8,0,0,0-.57-.57A5.1,5.1,0,0,0,103.52,20a3.64,3.64,0,0,0-.48.56,16.54,16.54,0,0,0-.76-2,5.07,5.07,0,0,0,1.39-8.17.81.81,0,0,0-.77-.21,5.09,5.09,0,0,0-2.37,8.42,13.27,13.27,0,0,1-10.1,19.29.8.8,0,0,0-.69.89.79.79,0,0,0,.79.69h.1a14.78,14.78,0,0,0,4.3-1.22,5.08,5.08,0,0,0,8.79,0,.77.77,0,0,0,0-.8,5.12,5.12,0,0,0-4.13-2.54,14.29,14.29,0,0,0,1.64-2.08,5.17,5.17,0,0,0,2.92.91,4.86,4.86,0,0,0,1.31-.17,5.1,5.1,0,0,0,3.6-3.59.81.81,0,0,0-.21-.77,5.1,5.1,0,0,0-4.91-1.32Zm.71-6.73a3.51,3.51,0,0,1,2.9-1,3.5,3.5,0,0,1-3.9,3.9A3.52,3.52,0,0,1,104.65,21.07Zm-3.81-7a3.48,3.48,0,0,1,2-2.31,3.48,3.48,0,0,1-1.43,5.32A3.51,3.51,0,0,1,100.84,14.11Zm1.24,23.65a3.5,3.5,0,0,1-5.52,0,3.5,3.5,0,0,1,5.52,0Zm3-5.82a3.48,3.48,0,0,1-3-.59,3.49,3.49,0,0,1,5.32-1.42A3.52,3.52,0,0,1,105.05,31.94Z"/><path class="cls-1" d="M88.78,5.86a.8.8,0,0,0,.56-.24.78.78,0,0,0,.24-.56.82.82,0,0,0-.8-.8.78.78,0,0,0-.56.24.8.8,0,0,0-.24.56.82.82,0,0,0,.8.8Z"/><path class="cls-1" d="M82.54,13.16a.79.79,0,0,0,.72.46.84.84,0,0,0,.34-.08A.8.8,0,0,0,84,12.48L81.9,8a.8.8,0,0,0-1.44.68Z"/><path class="cls-1" d="M88.78,13.38h0a.8.8,0,0,0,.8-.79V8.65a.8.8,0,0,0-.8-.8h0a.79.79,0,0,0-.79.8v3.94a.79.79,0,0,0,.8.79Z"/><path class="cls-1" d="M94,13.54a.81.81,0,0,0,.34.08.8.8,0,0,0,.72-.46L97.1,8.7A.8.8,0,0,0,95.66,8l-2.08,4.46A.79.79,0,0,0,94,13.54Z"/><path class="cls-1" d="M81.29,17h5.92v1.81h-4l-.13,1.65a4.07,4.07,0,0,1,.5-.13,3.1,3.1,0,0,1,.54,0,4.08,4.08,0,0,1,1.5.27,3.67,3.67,0,0,1,1.2.74,3.3,3.3,0,0,1,.81,1.13,3.36,3.36,0,0,1,.3,1.43,3.8,3.8,0,0,1-.28,1.43,3.62,3.62,0,0,1-.81,1.17,3.76,3.76,0,0,1-1.24.79,4.3,4.3,0,0,1-1.6.29,4.16,4.16,0,0,1-2.25-.6,3.78,3.78,0,0,1-1.46-1.56l2-.79a1.52,1.52,0,0,0,.68.75,1.89,1.89,0,0,0,.94.25,1.77,1.77,0,0,0,.64-.12,1.82,1.82,0,0,0,.56-.35,1.87,1.87,0,0,0,.39-.56,1.72,1.72,0,0,0,.15-.74,1.75,1.75,0,0,0-.15-.74,1.8,1.8,0,0,0-.39-.57,1.82,1.82,0,0,0-.56-.35A1.78,1.78,0,0,0,83.9,22a2,2,0,0,0-.77.13,1.67,1.67,0,0,0-.58.38H80.87Z"/><path class="cls-1" d="M88.52,22.16a8.66,8.66,0,0,1,.24-2.08,5.16,5.16,0,0,1,.74-1.7,3.62,3.62,0,0,1,1.28-1.15,3.83,3.83,0,0,1,1.85-.42,3.9,3.9,0,0,1,1.84.41,3.6,3.6,0,0,1,1.28,1.14,5.31,5.31,0,0,1,.74,1.71,9.22,9.22,0,0,1,0,4.18,5.25,5.25,0,0,1-.74,1.7,3.6,3.6,0,0,1-1.28,1.14,3.79,3.79,0,0,1-1.84.42,3.83,3.83,0,0,1-1.85-.42A3.69,3.69,0,0,1,89.5,26a5.25,5.25,0,0,1-.74-1.7A8.68,8.68,0,0,1,88.52,22.16Zm2.25,0a8.39,8.39,0,0,0,.09,1.26,3.67,3.67,0,0,0,.3,1,1.76,1.76,0,0,0,.57.71,1.67,1.67,0,0,0,1.79,0,1.76,1.76,0,0,0,.57-.71,3.67,3.67,0,0,0,.31-1,8.39,8.39,0,0,0,.09-1.26,8.26,8.26,0,0,0-.09-1.25,3.74,3.74,0,0,0-.31-1,1.87,1.87,0,0,0-.57-.72,1.67,1.67,0,0,0-1.79,0,1.87,1.87,0,0,0-.57.72,3.74,3.74,0,0,0-.3,1A8.26,8.26,0,0,0,90.77,22.16Z"/><path class="cls-1" d="M82.32,33h-.73V31.49l-1.22-2h.86L82,30.76l.71-1.24h.87l-1.22,2Z"/><path class="cls-1" d="M84,29.52h2.39v.65H84.73v.73h1.44v.58H84.73v.85h1.73V33H84Z"/><path class="cls-1" d="M89.21,32.21H88l-.31.77h-.79l1.39-3.46h.66L90.31,33h-.8Zm-1-.55H89l-.44-1.2Z"/><path class="cls-1" d="M93.46,30.61a1,1,0,0,1-.2.62,1.07,1.07,0,0,1-.53.37L93.62,33H92.8L92,31.7h-.41V33h-.73V29.52h1.33a1.78,1.78,0,0,1,.53.08,1.11,1.11,0,0,1,.4.22.94.94,0,0,1,.25.34A1.06,1.06,0,0,1,93.46,30.61Zm-1.87-.47v1h.57a.61.61,0,0,0,.41-.13.45.45,0,0,0,.14-.35.43.43,0,0,0-.15-.35.59.59,0,0,0-.42-.13Z"/><path class="cls-1" d="M95.94,30.39a.84.84,0,0,0-.3-.22.78.78,0,0,0-.37-.09.73.73,0,0,0-.22,0,.28.28,0,0,0-.14.09.21.21,0,0,0-.08.11.31.31,0,0,0,0,.13.33.33,0,0,0,.09.23.65.65,0,0,0,.3.14l.41.12a1.56,1.56,0,0,1,.72.4.91.91,0,0,1,.25.65,1.1,1.1,0,0,1-.08.4,1,1,0,0,1-.25.33,1.17,1.17,0,0,1-.41.24,1.82,1.82,0,0,1-.55.08l-.35,0a1.68,1.68,0,0,1-.65-.29,1.6,1.6,0,0,1-.27-.25l.46-.45a1.08,1.08,0,0,0,.39.3,1,1,0,0,0,.41.09.9.9,0,0,0,.25,0,.77.77,0,0,0,.18-.1.41.41,0,0,0,.1-.13.4.4,0,0,0,0-.15.37.37,0,0,0-.11-.27,1,1,0,0,0-.38-.18L95,31.43a1.48,1.48,0,0,1-.67-.38.9.9,0,0,1-.15-1,.87.87,0,0,1,.23-.31,1,1,0,0,1,.37-.22,1.28,1.28,0,0,1,.5-.08,1.53,1.53,0,0,1,.6.12,1.55,1.55,0,0,1,.53.37Z"/></g></g></svg>