<svg xmlns="http://www.w3.org/2000/svg" viewBox="0 0 250.37 217.7"><defs><style>.cls-1{fill:#4fc5d3;}.cls-2{fill:#bdc632;}.cls-3{fill:#d7df23;}</style></defs><g id="Layer_2" data-name="Layer 2"><g id="Layer_1-2" data-name="Layer 1"><circle class="cls-1" cx="28.77" cy="13.73" r="2.75"/><circle class="cls-1" cx="10.99" cy="32.67" r="2.02"/><circle class="cls-1" cx="13.3" cy="11.28" r="1.73"/><circle class="cls-2" cx="39.75" cy="45.54" r="1.88"/><circle class="cls-1" cx="28.91" cy="30.94" r="2.02"/><circle class="cls-1" cx="48.72" cy="8.82" r="2.75"/><circle class="cls-1" cx="47.27" cy="29.63" r="1.3"/><circle class="cls-1" cx="40.77" cy="20.24" r="1.73"/><circle class="cls-1" cx="15.61" cy="51.46" r="1.45"/><circle class="cls-1" cx="37.44" cy="73.29" r="1.59"/><circle class="cls-1" cx="4.91" cy="4.91" r="1.88"/><circle class="cls-1" cx="32.81" cy="1.59" r="1.3"/><circle class="cls-1" cx="73" cy="6.22" r="2.17"/><circle class="cls-1" cx="61.87" cy="19.08" r="1.16"/><circle class="cls-1" cx="60.71" cy="52.62" r="2.89"/><circle class="cls-1" cx="11.13" cy="86.59" r="1.59"/><circle class="cls-2" cx="19.37" cy="45.39" r="1.16"/><circle class="cls-1" cx="4.34" cy="42.79" r="1.45"/><circle class="cls-1" cx="77.63" cy="35.13" r="1.3"/><circle class="cls-2" cx="64.47" cy="2.89" r="1.16"/><circle class="cls-2" cx="54.64" cy="57.24" r="1.16"/><circle class="cls-2" cx="93.53" cy="12" r="2.17"/><circle class="cls-1" cx="78.06" cy="18.21" r="0.87"/><circle class="cls-1" cx="83.84" cy="5.2" r="1.16"/><circle class="cls-1" cx="85.87" cy="28.33" r="1.16"/><circle class="cls-1" cx="62.59" cy="32.81" r="2.17"/><circle class="cls-1" cx="71.7" cy="24.29" r="1.16"/><circle class="cls-1" cx="14.31" cy="103.07" r="1.3"/><circle class="cls-1" cx="3.76" cy="67.94" r="1.45"/><circle class="cls-1" cx="3.04" cy="22.7" r="1.3"/><circle class="cls-1" cx="111.89" cy="1.73" r="1.16"/><circle class="cls-1" cx="97.68" cy="19.08" r="1.45"/><circle class="cls-1" cx="101.62" cy="10.84" r="0.72"/><circle class="cls-1" cx="130.47" cy="4.34" r="1.16"/><circle class="cls-1" cx="19.66" cy="2.02" r="2.02"/><circle class="cls-1" cx="17.49" cy="20.96" r="1.59"/><circle class="cls-2" cx="34.26" cy="15.18" r="1.3"/><circle class="cls-2" cx="17.2" cy="70.69" r="2.46"/><circle class="cls-1" cx="23.56" cy="125.33" r="0.43"/><circle class="cls-2" cx="3.04" cy="14.6" r="3.04"/><circle class="cls-1" cx="13.44" cy="3.9" r="1.01"/><circle class="cls-1" cx="31.37" cy="52.47" r="1.3"/><circle class="cls-1" cx="56.09" cy="70.83" r="1.16"/><circle class="cls-1" cx="16.05" cy="121.28" r="2.17"/><circle class="cls-1" cx="1.73" cy="100.9" r="0.87"/><circle class="cls-1" cx="33.1" cy="88.04" r="1.01"/><circle class="cls-2" cx="22.26" cy="92.52" r="1.73"/><circle class="cls-1" cx="20.96" cy="75.89" r="0.43"/><circle class="cls-1" cx="49.29" cy="37.15" r="2.75"/><circle class="cls-1" cx="98.01" cy="1.73" r="1.16"/><circle class="cls-1" cx="8.67" cy="58.69" r="1.16"/><circle class="cls-1" cx="20.38" cy="34.55" r="1.3"/><circle class="cls-2" cx="4.63" cy="132.99" r="1.73"/><circle class="cls-1" cx="7.23" cy="113.04" r="1.16"/><circle class="cls-1" cx="221.61" cy="14.31" r="2.75"/><circle class="cls-2" cx="239.39" cy="33.25" r="2.02"/><circle class="cls-1" cx="237.08" cy="11.85" r="1.73"/><circle class="cls-1" cx="210.62" cy="46.11" r="1.88"/><circle class="cls-1" cx="221.46" cy="31.51" r="2.02"/><circle class="cls-2" cx="201.66" cy="9.4" r="2.75"/><circle class="cls-2" cx="203.1" cy="30.21" r="1.3"/><circle class="cls-1" cx="209.61" cy="20.82" r="1.73"/><circle class="cls-2" cx="234.76" cy="52.04" r="1.45"/><circle class="cls-1" cx="212.93" cy="73.87" r="1.59"/><circle class="cls-1" cx="247.34" cy="3.61" r="1.88"/><circle class="cls-1" cx="217.56" cy="2.17" r="1.3"/><circle class="cls-1" cx="177.37" cy="6.79" r="2.17"/><circle class="cls-1" cx="188.5" cy="19.66" r="1.16"/><circle class="cls-2" cx="189.66" cy="53.2" r="2.89"/><circle class="cls-2" cx="239.24" cy="87.17" r="1.59"/><circle class="cls-1" cx="231" cy="45.97" r="1.16"/><circle class="cls-1" cx="246.04" cy="43.37" r="1.45"/><circle class="cls-1" cx="172.75" cy="35.71" r="1.3"/><circle class="cls-1" cx="184.69" cy="48.35" r="1.3"/><circle class="cls-1" cx="185.9" cy="3.47" r="1.16"/><circle class="cls-1" cx="156.85" cy="12.58" r="2.17"/><circle class="cls-1" cx="172.31" cy="18.79" r="0.87"/><circle class="cls-3" cx="166.53" cy="5.78" r="1.16"/><circle class="cls-1" cx="164.51" cy="28.91" r="1.16"/><circle class="cls-1" cx="187.78" cy="33.39" r="2.17"/><circle class="cls-1" cx="178.67" cy="24.86" r="1.16"/><circle class="cls-1" cx="236.06" cy="103.65" r="1.3"/><circle class="cls-1" cx="246.62" cy="68.52" r="1.45"/><circle class="cls-1" cx="247.34" cy="23.27" r="1.3"/><circle class="cls-1" cx="138.49" cy="2.31" r="1.16"/><circle class="cls-2" cx="149.18" cy="19.66" r="1.45"/><circle class="cls-1" cx="148.75" cy="11.42" r="0.72"/><circle class="cls-1" cx="117.8" cy="2.81" r="1.16"/><circle class="cls-2" cx="230.71" cy="7.23" r="2.02"/><circle class="cls-1" cx="232.88" cy="21.54" r="1.59"/><circle class="cls-1" cx="216.11" cy="15.76" r="1.3"/><circle class="cls-1" cx="233.17" cy="71.27" r="2.46"/><circle class="cls-1" cx="226.81" cy="125.91" r="0.43"/><circle class="cls-1" cx="247.34" cy="15.18" r="3.04"/><circle class="cls-1" cx="236.93" cy="4.48" r="1.01"/><circle class="cls-1" cx="219.01" cy="53.05" r="1.3"/><circle class="cls-1" cx="194.29" cy="71.41" r="1.16"/><circle class="cls-1" cx="234.33" cy="121.86" r="2.17"/><circle class="cls-1" cx="248.64" cy="101.48" r="0.87"/><circle class="cls-1" cx="217.27" cy="88.61" r="1.01"/><circle class="cls-1" cx="228.11" cy="93.1" r="1.73"/><circle class="cls-1" cx="229.41" cy="76.47" r="0.43"/><circle class="cls-1" cx="201.08" cy="37.73" r="2.75"/><circle class="cls-1" cx="152.36" cy="2.31" r="1.16"/><circle class="cls-1" cx="241.7" cy="59.27" r="1.16"/><circle class="cls-1" cx="229.99" cy="35.13" r="1.3"/><circle class="cls-1" cx="245.75" cy="133.57" r="1.73"/><circle class="cls-2" cx="243.15" cy="113.62" r="1.16"/><circle class="cls-1" cx="45.97" cy="106.39" r="1.45"/><circle class="cls-1" cx="29.78" cy="108.42" r="3.18"/><circle class="cls-1" cx="48.14" cy="85.72" r="0.72"/><circle class="cls-2" cx="53.05" cy="101.05" r="1.3"/><circle class="cls-1" cx="201.8" cy="102.93" r="1.16"/><circle class="cls-2" cx="206.28" cy="86.59" r="1.88"/><circle class="cls-2" cx="196.31" cy="111.51" r="1.45"/><circle class="cls-1" cx="221.17" cy="106.11" r="1.45"/><circle class="cls-1" cx="28.91" cy="165.37" r="1.73"/><circle class="cls-1" cx="21.39" cy="181.56" r="0.87"/><circle class="cls-1" cx="10.55" cy="163.5" r="1.3"/><circle class="cls-1" cx="20.38" cy="145.86" r="1.88"/><circle class="cls-1" cx="6.22" cy="150.48" r="0.43"/><circle class="cls-2" cx="22.26" cy="158.15" r="2.02"/><circle class="cls-1" cx="34.26" cy="153.09" r="1.3"/><circle class="cls-1" cx="219.01" cy="152.09" r="1.3"/><circle class="cls-2" cx="233.17" cy="139.79" r="1.59"/><circle class="cls-1" cx="241.12" cy="130.68" r="1.16"/><circle class="cls-1" cx="221.03" cy="127.81" r="1.88"/><circle class="cls-1" cx="245.31" cy="164.94" r="1.88"/><circle class="cls-1" cx="12" cy="197.32" r="1.88"/><circle class="cls-2" cx="5.49" cy="175.78" r="1.16"/><circle class="cls-1" cx="30.5" cy="191.25" r="1.3"/><circle class="cls-1" cx="12.58" cy="215.83" r="0.43"/><circle class="cls-1" cx="2.89" cy="206.14" r="1.16"/><circle class="cls-1" cx="233.32" cy="197.18" r="1.73"/><circle class="cls-2" cx="229.41" cy="214.67" r="1.3"/><circle class="cls-1" cx="226.38" cy="165.95" r="0.87"/><circle class="cls-2" cx="242.57" cy="178.1" r="2.6"/><circle class="cls-1" cx="240.26" cy="150.34" r="0.58"/><circle class="cls-2" cx="33.39" cy="210.04" r="1.59"/><circle class="cls-1" cx="24" cy="216.84" r="0.87"/></g></g></svg>