<svg xmlns="http://www.w3.org/2000/svg" viewBox="0 0 48.52 21.37"><defs><style>.cls-1{fill:#005cb9;}.cls-2{fill:#f2cd00;}</style></defs><g id="Layer_2" data-name="Layer 2"><g id="Layer_1-2" data-name="Layer 1"><path class="cls-1" d="M13.08,8.81c.2,0,.3,0,.3-.15s-.12-.15-.35-.15c-.65,0-1.71.05-1.91.05,0,0-1.07-.05-1.92-.05-.23,0-.35,0-.35.15s.1.15.29.15a2.8,2.8,0,0,1,.6,0c.55.11.68.38.72,1s0,1,0,3.54v2.09c0,1.72-.05,3.22-1,4.14a3.27,3.27,0,0,1-2.31.9,3.08,3.08,0,0,1-2.08-.69c-.82-.66-1.31-1.68-1.31-4.1V13.35c0-2.54,0-3,0-3.54s.16-.87.62-1a2.06,2.06,0,0,1,.48,0c.17,0,.27,0,.27-.15s-.12-.15-.37-.15c-.6,0-1.65.05-2.05.05S1.25,8.51.37,8.51c-.25,0-.37,0-.37.15s.1.15.28.15a3.05,3.05,0,0,1,.66,0c.55.11.68.38.71,1s0,1,0,3.54v2.44c0,2.42.63,3.65,1.48,4.42a5.41,5.41,0,0,0,3.71,1.16,5,5,0,0,0,3.48-1.21c1.4-1.2,1.58-3.17,1.58-5V13.35c0-2.54,0-3,0-3.54s.17-.87.62-1A2.09,2.09,0,0,1,13.08,8.81Z"/><path class="cls-1" d="M48.37,18c-.13,0-.17.07-.22.34a2.77,2.77,0,0,1-.57,1.1c-.66.77-1.57.94-3,.94a5.61,5.61,0,0,1-5.26-5.95,5.55,5.55,0,0,1,1.53-4.32,4.36,4.36,0,0,1,3.14-1,4.94,4.94,0,0,1,3.39,1A2.31,2.31,0,0,1,48,11.66c0,.23,0,.37.17.37s.19-.14.2-.38,0-1.26,0-1.81.09-.78.09-.92-.07-.18-.25-.2c-.5-.05-1-.2-1.67-.28a16.59,16.59,0,0,0-2.43-.17A7.27,7.27,0,0,0,38.87,10a6.27,6.27,0,0,0-2,4.58A6.27,6.27,0,0,0,39,19.54a8.3,8.3,0,0,0,5.73,1.83,9.61,9.61,0,0,0,3-.39.58.58,0,0,0,.43-.48,15.43,15.43,0,0,0,.37-2.23C48.52,18.14,48.49,18,48.37,18Z"/><path class="cls-1" d="M39.25,20.83a2.88,2.88,0,0,1-1-.25,7.76,7.76,0,0,1-2.39-1.8c-.65-.62-3.93-4.15-4.53-4.93.57-.6,3.09-3.11,3.61-3.61A5.43,5.43,0,0,1,36.71,9a3.24,3.24,0,0,1,1-.19c.17,0,.25,0,.25-.15s-.11-.15-.28-.15c-.52,0-1.44.06-1.95.06S34.33,8.5,34,8.5c-.18,0-.26,0-.26.15s.07.14.22.17.23.15.23.34-.37.7-.84,1.25-2.92,3.06-3.48,3.67h-.09V11.79c0-.56,0-.94,0-1.23a1.72,1.72,0,0,0-.66-1.14c-1.09-1-4.75-2-7.78-3.79a3.69,3.69,0,0,1-1.76-2c-.37,1.92.84,3.32,3.16,4.29.21.09,4.49,2,4.59,2.05s.55.26.56.64-.08,6.07-.11,9h0c0,.1,0,.21,0,.3h0c0,.21,0,.4,0,.57v.14h0v.4c-.13,0-.28,0-.52,0a.84.84,0,0,1-.59-.36h0l-.13-.94-.78-6.26L25.31,10l-1.25-.56-4.12,8.64L15.38,8.65c-.22-.43-.32-.51-.45-.51s-.23.15-.28.43L13,19.46c-.08.57-.22,1.22-.68,1.32a2.16,2.16,0,0,1-.5,0c-.17,0-.27,0-.27.12s.13.18.3.18c.53,0,1.34-.05,1.65-.05s1.06.05,1.76.05c.25,0,.4,0,.4-.18s-.12-.12-.25-.12a3.62,3.62,0,0,1-.7-.08c-.29-.07-.51-.22-.51-.54a7.27,7.27,0,0,1,.05-.78l.87-6.65h.07c.58,1.25,1.59,3.36,1.74,3.71s1.52,3,1.92,3.79c.27.5.43.83.58.83s.24-.14.62-.93l3.64-7.58h.07l1,7.13,0,.13c0,.08,0,.32.11.63s-.28.33-.62.38a6.73,6.73,0,0,1-.87.07c-.17,0-.31,0-.31.09s.19.14.5.14c.87,0,1.8,0,2.18,0s1.32,0,2,0h3c.15,0,.26-.05.26-.14s-.07-.11-.18-.11a5.36,5.36,0,0,1-.68-.06c-.33-.05-.38-.32-.4-.68,0-.2,0-.42,0-.67h0l.07-4.75h.09L30,15c.35.48,3.64,4.34,4.37,5a3.3,3.3,0,0,0,2.07,1.09c.35,0,.66,0,1.16,0h1.45c.32,0,.4-.05.4-.16S39.37,20.83,39.25,20.83Z"/><path class="cls-2" d="M19.82,3.38s1.1,1.51,8,4.17a3,3,0,0,1,1.94,1.83s.4-2.23-.95-3.26S19.05,2.62,19.56,0A3.45,3.45,0,0,0,19.82,3.38Z"/></g></g></svg>